<svg width="17" height="17" viewBox="0 0 17 17" fill="none"
  xmlns="http://www.w3.org/2000/svg">
  <path fill-rule="evenodd" clip-rule="evenodd" d="M9.16755 8.50006L15.4447 2.22287C15.6293 2.03823 15.6293 1.73979 15.4447 1.55515C15.2601 1.37051 14.9616 1.37051 14.777 1.55515L8.49984 7.83235L2.22269 1.55515C2.03806 1.37051 1.73962 1.37051 1.55498 1.55515C1.37034 1.73979 1.37034 2.03823 1.55498 2.22287L7.83213 8.50006L1.55498 14.7773C1.37034 14.9619 1.37034 15.2603 1.55498 15.445C1.64706 15.5371 1.76795 15.5833 1.88884 15.5833C2.00972 15.5833 2.13061 15.5371 2.22269 15.445L8.49984 9.16778L14.777 15.445C14.8691 15.5371 14.99 15.5833 15.1108 15.5833C15.2317 15.5833 15.3526 15.5371 15.4447 15.445C15.6293 15.2603 15.6293 14.9619 15.4447 14.7773L9.16755 8.50006Z" fill="#111111" stroke="#111111" stroke-width="0.5"/>
</svg>
