<svg width="17" height="17" viewBox="0 0 17 17" fill="none"
  xmlns="http://www.w3.org/2000/svg">
  <path fill-rule="evenodd" clip-rule="evenodd" d="M11.1748 1.03738C10.896 0.939981 10.5904 1.08662 10.493 1.36545C10.395 1.64428 10.5411 1.94988 10.8205 2.04781C13.5944 3.02078 15.4574 5.63623 15.4574 8.55567C15.4574 12.3614 12.3362 15.4574 8.49995 15.4574C4.66374 15.4574 1.54254 12.3614 1.54254 8.55567C1.54254 5.86154 3.1315 3.42913 5.55643 2.3047V4.75371C5.55643 5.04913 5.79565 5.2889 6.09161 5.2889C6.38757 5.2889 6.6268 5.04913 6.6268 4.75371V1.00741C6.6268 0.711992 6.38757 0.472229 6.09161 0.472229H2.34532C2.04936 0.472229 1.81013 0.711992 1.81013 1.00741C1.81013 1.30284 2.04936 1.5426 2.34532 1.5426H4.67979C2.12107 2.9191 0.472168 5.60251 0.472168 8.55567C0.472168 12.9517 4.07289 16.5278 8.49995 16.5278C12.9265 16.5278 16.5277 12.9517 16.5277 8.55567C16.5277 5.18239 14.3763 2.16074 11.1748 1.03738Z" fill="#111111"/>
  <path d="M11.1748 1.03738C10.896 0.939981 10.5904 1.08662 10.493 1.36545C10.395 1.64428 10.5411 1.94988 10.8205 2.04781C13.5944 3.02078 15.4574 5.63623 15.4574 8.55567C15.4574 12.3614 12.3362 15.4574 8.49995 15.4574C4.66374 15.4574 1.54254 12.3614 1.54254 8.55567C1.54254 5.86154 3.1315 3.42913 5.55643 2.3047V4.75371C5.55643 5.04913 5.79565 5.2889 6.09161 5.2889C6.38757 5.2889 6.6268 5.04913 6.6268 4.75371V1.00741C6.6268 0.711992 6.38757 0.472229 6.09161 0.472229H2.34532C2.04936 0.472229 1.81013 0.711992 1.81013 1.00741C1.81013 1.30284 2.04936 1.5426 2.34532 1.5426H4.67979C2.12107 2.9191 0.472168 5.60251 0.472168 8.55567C0.472168 12.9517 4.07289 16.5278 8.49995 16.5278C12.9265 16.5278 16.5277 12.9517 16.5277 8.55567C16.5277 5.18239 14.3763 2.16074 11.1748 1.03738" stroke="#111111" stroke-width="0.2"/>
</svg>
